<mxfile host="app.diagrams.net" agent="Mozilla/5.0 (Macintosh; Intel Mac OS X 10_15_7) AppleWebKit/537.36 (KHTML, like Gecko) Chrome/126.0.0.0 Whale/3.27.254.15 Safari/537.36" version="24.8.0">
  <diagram name="페이지-1" id="wwkxa6Cd8h9YCE3ScFu-">
    <mxGraphModel dx="749" dy="1421" grid="1" gridSize="10" guides="1" tooltips="1" connect="1" arrows="1" fold="1" page="1" pageScale="1" pageWidth="1169" pageHeight="827" math="0" shadow="0">
      <root>
        <mxCell id="0" />
        <mxCell id="1" parent="0" />
        <mxCell id="1r7JVwWzZbzb9g46OdJC-21" style="rounded=0;orthogonalLoop=1;jettySize=auto;html=1;entryX=0.5;entryY=0;entryDx=0;entryDy=0;" edge="1" parent="1" source="1r7JVwWzZbzb9g46OdJC-1" target="1r7JVwWzZbzb9g46OdJC-11">
          <mxGeometry relative="1" as="geometry" />
        </mxCell>
        <mxCell id="1r7JVwWzZbzb9g46OdJC-22" style="edgeStyle=orthogonalEdgeStyle;rounded=0;orthogonalLoop=1;jettySize=auto;html=1;entryX=0.5;entryY=0;entryDx=0;entryDy=0;" edge="1" parent="1" source="1r7JVwWzZbzb9g46OdJC-1" target="1r7JVwWzZbzb9g46OdJC-5">
          <mxGeometry relative="1" as="geometry" />
        </mxCell>
        <mxCell id="1r7JVwWzZbzb9g46OdJC-1" value="&lt;b&gt;Kafka Cluster&lt;/b&gt;" style="rounded=1;whiteSpace=wrap;html=1;fillColor=#dae8fc;strokeColor=#6c8ebf;" vertex="1" parent="1">
          <mxGeometry x="360" y="120" width="120" height="80" as="geometry" />
        </mxCell>
        <mxCell id="1r7JVwWzZbzb9g46OdJC-3" style="edgeStyle=orthogonalEdgeStyle;rounded=0;orthogonalLoop=1;jettySize=auto;html=1;entryX=0;entryY=0.5;entryDx=0;entryDy=0;" edge="1" parent="1" source="1r7JVwWzZbzb9g46OdJC-2" target="1r7JVwWzZbzb9g46OdJC-1">
          <mxGeometry relative="1" as="geometry" />
        </mxCell>
        <mxCell id="1r7JVwWzZbzb9g46OdJC-2" value="&lt;b&gt;Kafka Producer&lt;/b&gt;" style="rounded=1;whiteSpace=wrap;html=1;fillColor=#f5f5f5;fontColor=#333333;strokeColor=#666666;" vertex="1" parent="1">
          <mxGeometry x="40" y="140" width="120" height="40" as="geometry" />
        </mxCell>
        <mxCell id="1r7JVwWzZbzb9g46OdJC-4" value="&amp;lt;hello world&amp;gt;, &amp;lt;hi world&amp;gt;,&amp;nbsp;&lt;div&gt;&amp;lt; bye world&amp;gt;...&lt;/div&gt;" style="text;html=1;align=center;verticalAlign=middle;whiteSpace=wrap;rounded=0;" vertex="1" parent="1">
          <mxGeometry x="180" y="120" width="160" height="30" as="geometry" />
        </mxCell>
        <mxCell id="1r7JVwWzZbzb9g46OdJC-5" value="" style="rounded=0;whiteSpace=wrap;html=1;fillColor=#d5e8d4;strokeColor=#82b366;" vertex="1" parent="1">
          <mxGeometry x="305" y="320" width="230" height="120" as="geometry" />
        </mxCell>
        <mxCell id="1r7JVwWzZbzb9g46OdJC-6" value="Kafka Streams" style="rounded=1;whiteSpace=wrap;html=1;" vertex="1" parent="1">
          <mxGeometry x="332.5" y="380" width="120" height="40" as="geometry" />
        </mxCell>
        <mxCell id="1r7JVwWzZbzb9g46OdJC-7" value="hello&lt;div&gt;world&lt;/div&gt;" style="shape=cylinder3;whiteSpace=wrap;html=1;boundedLbl=1;backgroundOutline=1;size=15;" vertex="1" parent="1">
          <mxGeometry x="447.5" y="370" width="60" height="60" as="geometry" />
        </mxCell>
        <mxCell id="1r7JVwWzZbzb9g46OdJC-10" value="&lt;b&gt;Application Instance 2&lt;/b&gt;" style="text;html=1;align=center;verticalAlign=middle;whiteSpace=wrap;rounded=0;" vertex="1" parent="1">
          <mxGeometry x="350" y="330" width="140" height="30" as="geometry" />
        </mxCell>
        <mxCell id="1r7JVwWzZbzb9g46OdJC-11" value="" style="rounded=0;whiteSpace=wrap;html=1;fillColor=#d5e8d4;strokeColor=#82b366;" vertex="1" parent="1">
          <mxGeometry x="10" y="320" width="230" height="120" as="geometry" />
        </mxCell>
        <mxCell id="1r7JVwWzZbzb9g46OdJC-12" value="Kafka Streams" style="rounded=1;whiteSpace=wrap;html=1;" vertex="1" parent="1">
          <mxGeometry x="37.5" y="380" width="120" height="40" as="geometry" />
        </mxCell>
        <mxCell id="1r7JVwWzZbzb9g46OdJC-13" value="hi&lt;div&gt;world&lt;/div&gt;" style="shape=cylinder3;whiteSpace=wrap;html=1;boundedLbl=1;backgroundOutline=1;size=15;" vertex="1" parent="1">
          <mxGeometry x="152.5" y="370" width="60" height="60" as="geometry" />
        </mxCell>
        <mxCell id="1r7JVwWzZbzb9g46OdJC-15" value="&lt;b&gt;Application Instance 1&lt;/b&gt;" style="text;html=1;align=center;verticalAlign=middle;whiteSpace=wrap;rounded=0;" vertex="1" parent="1">
          <mxGeometry x="55" y="330" width="140" height="30" as="geometry" />
        </mxCell>
        <mxCell id="1r7JVwWzZbzb9g46OdJC-16" value="" style="rounded=0;whiteSpace=wrap;html=1;fillColor=#d5e8d4;strokeColor=#82b366;" vertex="1" parent="1">
          <mxGeometry x="600" y="320" width="230" height="120" as="geometry" />
        </mxCell>
        <mxCell id="1r7JVwWzZbzb9g46OdJC-17" value="Kafka Streams" style="rounded=1;whiteSpace=wrap;html=1;" vertex="1" parent="1">
          <mxGeometry x="627.5" y="380" width="120" height="40" as="geometry" />
        </mxCell>
        <mxCell id="1r7JVwWzZbzb9g46OdJC-18" value="bye&lt;div&gt;world&lt;/div&gt;" style="shape=cylinder3;whiteSpace=wrap;html=1;boundedLbl=1;backgroundOutline=1;size=15;" vertex="1" parent="1">
          <mxGeometry x="742.5" y="370" width="60" height="60" as="geometry" />
        </mxCell>
        <mxCell id="1r7JVwWzZbzb9g46OdJC-20" value="&lt;b&gt;Application Instance 3&lt;/b&gt;" style="text;html=1;align=center;verticalAlign=middle;whiteSpace=wrap;rounded=0;" vertex="1" parent="1">
          <mxGeometry x="645" y="330" width="140" height="30" as="geometry" />
        </mxCell>
        <mxCell id="1r7JVwWzZbzb9g46OdJC-23" style="rounded=0;orthogonalLoop=1;jettySize=auto;html=1;entryX=0.53;entryY=0;entryDx=0;entryDy=0;entryPerimeter=0;" edge="1" parent="1" source="1r7JVwWzZbzb9g46OdJC-1" target="1r7JVwWzZbzb9g46OdJC-16">
          <mxGeometry relative="1" as="geometry" />
        </mxCell>
      </root>
    </mxGraphModel>
  </diagram>
</mxfile>
